<svg width="610" height="345" viewBox="0 0 610 345" fill="none" xmlns="http://www.w3.org/2000/svg">
<g style="mix-blend-mode:multiply">
<path fill-rule="evenodd" clip-rule="evenodd" d="M1.02186e-06 345.731L0 207.158L77.7967 223.763L1.02186e-06 345.731Z" fill="#F9FEFE"/>
</g>
<path opacity="0.01" fill-rule="evenodd" clip-rule="evenodd" d="M0 0H647.982V345.731H0V0Z" fill="white"/>
<g style="mix-blend-mode:multiply">
<path fill-rule="evenodd" clip-rule="evenodd" d="M77.7451 223.747L147.334 114.995C152.237 107.333 164.374 104.157 174.404 107.886L455.6 212.422L273.697 265.699L77.7451 223.747Z" fill="#F5FFFF"/>
</g>
<path fill-rule="evenodd" clip-rule="evenodd" d="M0.0371094 345.727L77.785 223.76L273.782 265.667L0.0371094 345.727Z" fill="#F3FDFD"/>
<g style="mix-blend-mode:multiply">
<path fill-rule="evenodd" clip-rule="evenodd" d="M647.981 283.673L455.591 212.417L648 156.258L647.981 283.673Z" fill="#F3FDFD"/>
</g>
<g style="mix-blend-mode:multiply">
<path fill-rule="evenodd" clip-rule="evenodd" d="M647.982 345.732L273.777 265.629L455.64 212.418L647.982 283.686V345.732Z" fill="#EDFCFC"/>
</g>
<g style="mix-blend-mode:multiply">
<path fill-rule="evenodd" clip-rule="evenodd" d="M647.982 345.731H0L273.773 265.629L647.982 345.731Z" fill="#E7FBFA"/>
</g>
</svg>
