<?xml version="1.0" encoding="UTF-8" standalone="no"?>
<svg width="18px" height="18px" viewBox="0 0 18 18" version="1.1" xmlns="http://www.w3.org/2000/svg" xmlns:xlink="http://www.w3.org/1999/xlink">
    <!-- Generator: Sketch 3.8.1 (29687) - http://www.bohemiancoding.com/sketch -->
    <title>96 - Settings (Solid) + Rectangle 142</title>
    <desc>Created with Sketch.</desc>
    <defs></defs>
    <g id="Construir" stroke="none" stroke-width="1" fill="none" fill-rule="evenodd">
        <g id="Dashboard" transform="translate(-309.000000, -506.000000)">
            <g id="Group-2" transform="translate(130.000000, 164.000000)">
                <g id="Group-4" transform="translate(87.000000, 42.317380)">
                    <g id="96---Settings-(Solid)-+-Rectangle-142" transform="translate(90.000000, 297.229219)">
                        <g id="96---Settings-(Solid)" transform="translate(3.000000, 3.073048)" stroke="#565656">
                            <g id="Page-1">
                                <g>
                                    <g id="Icons">
                                        <g id="96---Settings-(Solid)">
                                            <path d="M15.7594074,7.13796934 L14.8328889,6.95525578 C14.2871111,6.84811643 13.84,6.46751376 13.637037,5.93758373 C13.4340741,5.4076537 13.509037,4.817325 13.8376296,4.35811301 L14.4195556,3.54531082 C14.5060741,3.42451348 14.4933333,3.25727898 14.3899259,3.15135367 L13.133037,1.86386043 C13.0325926,1.76097024 12.874963,1.74549118 12.7576296,1.8268321 L11.976,2.36920608 C11.7063704,2.5561688 11.3955556,2.65511335 11.0773333,2.65511335 C10.2734815,2.65511335 9.60148148,2.06599869 9.47940741,1.25380353 L9.32977778,0.257377243 C9.30785185,0.109263924 9.18340741,0 9.03703704,0 L7.25925926,0 C7.11733333,0 6.99496296,0.103497217 6.9682963,0.246450851 L6.73807407,1.4729384 C6.5922963,2.24931928 5.92474074,2.81324253 5.15081481,2.81324253 C4.8322963,2.81324253 4.52118519,2.71429798 4.25214815,2.52733526 L3.24266667,1.8268321 C3.12503704,1.74579469 2.96740741,1.76097024 2.86696296,1.86386043 L1.60977778,3.15135367 C1.50637037,3.25727898 1.49392593,3.42451348 1.58014815,3.54561433 L2.16237037,4.35841652 C2.49096296,4.817325 2.56592593,5.4076537 2.36296296,5.93758373 C2.16,6.46751376 1.71288889,6.84811643 1.16740741,6.95525578 L0.240296296,7.13796934 C0.100740741,7.16528532 0,7.29063532 0,7.43601704 L0,9.25708244 C0,9.40671331 0.106666667,9.53418789 0.251259259,9.55695121 L1.224,9.71022421 C1.77303704,9.79672482 2.23377778,10.1600274 2.4557037,10.6814591 C2.67792593,11.2034978 2.62459259,11.7962546 2.31288889,12.2676071 L1.78340741,13.0682688 C1.704,13.1884591 1.71911111,13.3499269 1.81955556,13.4528171 L3.07644444,14.7406139 C3.17985185,14.8459321 3.34281481,14.8595901 3.46103704,14.7706614 L4.25481481,14.174566 C4.53451852,13.9645365 4.86222222,13.8534515 5.20207407,13.8534515 C5.9762963,13.8534515 6.64414815,14.4170712 6.79022222,15.1937556 L6.9682963,16.1434412 C6.99496296,16.2860914 7.11733333,16.3895886 7.25925926,16.3895886 L9.03703704,16.3895886 C9.18340741,16.3895886 9.30755556,16.2803247 9.32977778,16.1322113 L9.43525926,15.4317082 C9.57333333,14.5114631 10.344,14.0300948 11.0337778,14.0300948 C11.3733333,14.0300948 11.7007407,14.1411798 11.9807407,14.3515129 L12.538963,14.7706614 C12.6571852,14.8595901 12.8204444,14.8459321 12.9235556,14.7406139 L14.1804444,13.4528171 C14.2808889,13.3499269 14.296,13.1884591 14.2165926,13.0682688 L13.6871111,12.2676071 C13.3757037,11.7962546 13.3220741,11.2034978 13.5442963,10.6814591 C13.7665185,10.1600274 14.226963,9.79672482 14.776,9.71022421 L15.7487407,9.55695121 C15.8933333,9.53418789 16,9.40671331 16,9.25708244 L16,7.43601704 C16,7.29063532 15.8992593,7.16528532 15.7594074,7.13796934 L15.7594074,7.13796934 L15.7594074,7.13796934 Z M10.6666667,8.34654974 C10.6666667,9.76910533 9.53688889,10.9263924 8.14814815,10.9263924 C6.75940741,10.9263924 5.62962963,9.76910533 5.62962963,8.34654974 C5.62962963,6.92429766 6.75940741,5.76670709 8.14814815,5.76670709 C9.53688889,5.76670709 10.6666667,6.92429766 10.6666667,8.34654974 L10.6666667,8.34654974 L10.6666667,8.34654974 Z" id="Fill-311"></path>
                                        </g>
                                    </g>
                                </g>
                            </g>
                        </g>
                        <rect id="Rectangle-142" x="0" y="0" width="22" height="22.5356843"></rect>
                    </g>
                </g>
            </g>
        </g>
    </g>
</svg>