<svg width="610" height="345" viewBox="0 0 610 345" fill="none" xmlns="http://www.w3.org/2000/svg">
<g style="mix-blend-mode:multiply">
<path fill-rule="evenodd" clip-rule="evenodd" d="M648 -0.894897L648 137.744L570.166 121.132L648 -0.894897Z" fill="#F9FEFE"/>
</g>
<path opacity="0.01" fill-rule="evenodd" clip-rule="evenodd" d="M648 345H-0.290527V-0.895782H648V345Z" fill="white"/>
<g style="mix-blend-mode:multiply">
<path fill-rule="evenodd" clip-rule="evenodd" d="M570.22 121.147L500.598 229.95C495.693 237.615 483.549 240.793 473.514 237.063L192.185 132.477L374.175 79.1747L570.22 121.147Z" fill="#F5FFFF"/>
</g>
<path fill-rule="evenodd" clip-rule="evenodd" d="M647.965 -0.890312L570.18 121.135L374.089 79.2078L647.965 -0.890312Z" fill="#F3FDFD"/>
<g style="mix-blend-mode:multiply">
<path fill-rule="evenodd" clip-rule="evenodd" d="M-0.290649 61.1925L192.191 132.482L-0.309326 188.668L-0.290649 61.1925Z" fill="#F3FDFD"/>
</g>
<g style="mix-blend-mode:multiply">
<path fill-rule="evenodd" clip-rule="evenodd" d="M-0.290771 -0.897552L374.092 79.2444L192.142 132.48L-0.290771 61.1787V-0.897552Z" fill="#EDFCFC"/>
</g>
<g style="mix-blend-mode:multiply">
<path fill-rule="evenodd" clip-rule="evenodd" d="M-0.290527 -0.896355H648L374.097 79.2441L-0.290527 -0.896355Z" fill="#E7FBFA"/>
</g>
</svg>
