<?xml version="1.0" encoding="UTF-8" standalone="no"?>
<svg width="48px" height="49px" viewBox="0 0 48 49" version="1.1" xmlns="http://www.w3.org/2000/svg" xmlns:xlink="http://www.w3.org/1999/xlink">
    <!-- Generator: Sketch 3.8.1 (29687) - http://www.bohemiancoding.com/sketch -->
    <title>Page 1 Copy 16</title>
    <desc>Created with Sketch.</desc>
    <defs>
        <ellipse id="path-1" cx="24" cy="24.1813602" rx="24" ry="24.1813602"></ellipse>
        <polyline id="path-3" points="0 0.0278986337 79.6192 0.0278986337 79.6192 83.0470956 0 83.0470956"></polyline>
    </defs>
    <g id="Construir" stroke="none" stroke-width="1" fill="none" fill-rule="evenodd">
        <g id="Dashboard" transform="translate(-295.000000, -206.000000)">
            <g id="Group-2" transform="translate(130.000000, 164.000000)">
                <g id="Group-4" transform="translate(87.000000, 42.317380)">
                    <g id="Page-1-Copy-16" transform="translate(78.000000, 0.000000)">
                        <mask id="mask-2" fill="white">
                            <use xlink:href="#path-1"></use>
                        </mask>
                        <use id="Mask" fill="#80EBE3" xlink:href="#path-1"></use>
                        <g id="Page-1" mask="url(#mask-2)">
                            <g transform="translate(-11.200000, 14.508816)">
                                <path d="M2.01792,36.6218876 L24.3392,4.25493092 C25.68576,2.30202656 28.19648,1.57017403 30.36032,2.50056103 L72.33856,20.5412449 C74.88064,21.6338333 76.2432,24.4548393 75.536,27.1597092 L63.23712,74.2032936 C61.89952,78.470487 57.13472,80.5362835 53.16672,78.570403 L5.9296,53.1112778 C0.00768,49.919155 -1.82464,42.1944775 2.01792,36.6218876" id="Fill-4" fill="#FFFFFF"></path>
                                <g id="Group-3" stroke-width="1" fill="none">
                                    <mask id="mask-4" fill="white">
                                        <use xlink:href="#path-3"></use>
                                    </mask>
                                    <g id="Clip-2"></g>
                                    <path d="M8.366848,19.3541905 L42.667008,0.630963285 C44.736768,-0.498606977 47.303808,-0.00616365163 48.823808,1.81114037 L78.304128,37.0717693 C80.089088,39.206988 80.053888,42.3472063 78.221568,44.4409015 L46.356608,80.8421304 C43.267968,84.0426876 38.096128,83.714392 35.424768,80.1485574 L4.540928,35.8643424 C0.669568,30.3125143 2.461568,22.5774559 8.366848,19.3541905" id="Fill-1" fill="#FFFFFF" mask="url(#mask-4)"></path>
                                    <path d="M8.366848,19.3541905 L42.667008,0.630963285 C44.736768,-0.498606977 47.303808,-0.00616365163 48.823808,1.81114037 L78.304128,37.0717693 C80.089088,39.206988 80.053888,42.3472063 78.221568,44.4409015 L46.356608,80.8421304 C43.267968,84.0426876 38.096128,83.714392 35.424768,80.1485574 L4.540928,35.8643424 C0.669568,30.3125143 2.461568,22.5774559 8.366848,19.3541905" id="Fill-1" fill="#DF386F" mask="url(#mask-4)"></path>
                                </g>
                                <path d="M2.01792,36.6218876 L24.3392,4.25493092 C25.68576,2.30202656 28.19648,1.57017403 30.36032,2.50056103 L72.33856,20.5412449 C74.88064,21.6338333 76.2432,24.4548393 75.536,27.1597092 L63.23712,74.2032936 C61.89952,78.470487 57.13472,80.5362835 53.16672,78.570403 L5.9296,53.1112778 C0.00768,49.919155 -1.82464,42.1944775 2.01792,36.6218876" id="Fill-4" fill="#2FCAD7" style="mix-blend-mode: multiply;"></path>
                            </g>
                        </g>
                    </g>
                </g>
            </g>
        </g>
    </g>
</svg>