<svg width="46" height="46" viewBox="0 0 46 46" fill="none" xmlns="http://www.w3.org/2000/svg">
<path fill-rule="evenodd" clip-rule="evenodd" d="M18.0502 1.92578C18.4726 3.13299 25.2838 6.74676 26.4812 16.262C26.4812 16.262 30.3843 10.3057 33.8686 9.20838C33.8686 9.20838 31.9267 14.0245 34.3917 17.4328C36.8569 20.8413 38.8636 27.5352 38.3688 31.0146C37.8736 34.494 35.3409 45.008 23.2291 44.5199C9.14232 43.9515 9.05703 31.5735 10.1349 25.9905C10.7233 22.9427 14.1221 18.6412 16.5957 15.9632C22.3326 9.75202 18.0502 1.92578 18.0502 1.92578Z" fill="#F5FF2B"/>
<path d="M14.4316 15.0889C14.4316 15.0889 18.4516 10.2364 18.9534 8.78783C19.3465 7.65214 19.5133 3.93156 18.153 1.80454C16.7925 -0.322683 28.4677 7.86568 27.6542 15.7735C27.3986 18.2594 28.9465 11.2738 35.1932 9.23591C35.6477 9.08755 33.2827 13.9772 35.0104 16.2614C36.7381 18.5458 39.9053 22.784 39.9053 29.7155" stroke="#020202" stroke-width="2" stroke-linecap="round" stroke-linejoin="round"/>
<path fill-rule="evenodd" clip-rule="evenodd" d="M40.9955 32.2633C40.9955 32.903 40.4771 33.4213 39.8378 33.4213C39.1981 33.4213 38.6797 32.903 38.6797 32.2633C38.6797 31.6237 39.1981 31.1055 39.8378 31.1055C40.4771 31.1055 40.9955 31.6237 40.9955 32.2633Z" fill="black"/>
<path fill-rule="evenodd" clip-rule="evenodd" d="M9.96618 24.8533C9.96618 25.4929 9.44778 26.0111 8.8085 26.0111C8.16879 26.0111 7.65039 25.4929 7.65039 24.8533C7.65039 24.2138 8.16879 23.6953 8.8085 23.6953C9.44778 23.6953 9.96618 24.2138 9.96618 24.8533Z" fill="black"/>
<path d="M13.0422 16.7461C10.7414 19.09 9.33691 22.304 9.33691 22.304" stroke="#020202" stroke-width="2" stroke-linecap="round" stroke-linejoin="round"/>
<path d="M8.41113 27.8633C8.41113 27.8633 8.57829 31.2118 9.01612 32.8633C9.67247 35.3401 12.8886 44.736 24.3093 44.5337C35.8317 44.3297 38.9796 34.3753 38.9796 34.3753" stroke="#020202" stroke-width="2" stroke-linecap="round" stroke-linejoin="round"/>
<path fill-rule="evenodd" clip-rule="evenodd" d="M20.4535 30.4118C20.4535 31.0513 19.935 31.5697 19.2956 31.5697C18.6559 31.5697 18.1377 31.0513 18.1377 30.4118C18.1377 29.7721 18.6559 29.2539 19.2956 29.2539C19.935 29.2539 20.4535 29.7721 20.4535 30.4118Z" fill="#020202"/>
<path fill-rule="evenodd" clip-rule="evenodd" d="M29.7162 30.4118C29.7162 31.0513 29.1978 31.5697 28.5584 31.5697C27.9188 31.5697 27.4004 31.0513 27.4004 30.4118C27.4004 29.7721 27.9188 29.2539 28.5584 29.2539C29.1978 29.2539 29.7162 29.7721 29.7162 30.4118Z" fill="#020202"/>
<path fill-rule="evenodd" clip-rule="evenodd" d="M21.3809 31.1055H26.4756C26.4756 31.1055 26.1426 33.4698 23.7278 33.4205C21.7508 33.3803 21.3809 31.1055 21.3809 31.1055Z" fill="#020202"/>
<path fill-rule="evenodd" clip-rule="evenodd" d="M25.0843 32.726C25.0843 33.1097 24.5658 33.4207 23.9264 33.4207C23.2871 33.4207 22.7686 33.1097 22.7686 32.726C22.7686 32.3423 23.2871 32.0312 23.9264 32.0312C24.5658 32.0312 25.0843 32.3423 25.0843 32.726Z" fill="#F5FF2B"/>
<path fill-rule="evenodd" clip-rule="evenodd" d="M1.92676 8.64227C1.92676 8.0029 2.44514 7.48438 3.08474 7.48438C3.72398 7.48438 4.24255 8.0029 4.24255 8.64227C4.24255 9.28182 3.72398 9.80016 3.08474 9.80016C2.44514 9.80016 1.92676 9.28182 1.92676 8.64227Z" stroke="#F5FF2B" stroke-width="2"/>
<path fill-rule="evenodd" clip-rule="evenodd" d="M38.9795 8.64218C38.9795 8.00276 39.4979 7.48438 40.1375 7.48438C40.7769 7.48438 41.2953 8.00276 41.2953 8.64218C41.2953 9.28178 40.7769 9.80016 40.1375 9.80016C39.4979 9.80016 38.9795 9.28178 38.9795 8.64218Z" stroke="#A0E9FF" stroke-width="2"/>
<path fill-rule="evenodd" clip-rule="evenodd" d="M2.38965 18.8315C2.38965 18.4477 2.70082 18.1367 3.08426 18.1367C3.46795 18.1367 3.77912 18.4477 3.77912 18.8315C3.77912 19.2152 3.46795 19.5262 3.08426 19.5262C2.70082 19.5262 2.38965 19.2152 2.38965 18.8315Z" fill="#F5FF2B"/>
<path fill-rule="evenodd" clip-rule="evenodd" d="M43.6123 12.1175C43.6123 11.8616 43.8197 11.6543 44.0754 11.6543C44.3312 11.6543 44.5386 11.8616 44.5386 12.1175C44.5386 12.3733 44.3312 12.5806 44.0754 12.5806C43.8197 12.5806 43.6123 12.3733 43.6123 12.1175Z" fill="#F5FF2B"/>
<path fill-rule="evenodd" clip-rule="evenodd" d="M1 16.7464C1 16.4904 1.20722 16.2832 1.46316 16.2832C1.71878 16.2832 1.92632 16.4904 1.92632 16.7464C1.92632 17.0023 1.71878 17.2095 1.46316 17.2095C1.20722 17.2095 1 17.0023 1 16.7464Z" fill="#F5FF2B"/>
<path d="M10.2646 5.63117H11.191" stroke="#F5FF2B" stroke-width="1.5" stroke-linecap="round" stroke-linejoin="round"/>
<path d="M7.02246 5.63117H7.94878" stroke="#F5FF2B" stroke-width="1.5" stroke-linecap="round" stroke-linejoin="round"/>
<path d="M9.80078 6.55664L10.7271 7.48296" stroke="#F5FF2B" stroke-width="1.5" stroke-linecap="round" stroke-linejoin="round"/>
<path d="M7.48438 3.7793L8.41069 4.70561" stroke="#F5FF2B" stroke-width="1.5" stroke-linecap="round" stroke-linejoin="round"/>
<path d="M9.13882 7.02148V7.9478" stroke="#F5FF2B" stroke-width="1.5" stroke-linecap="round" stroke-linejoin="round"/>
<path d="M9.13882 3.31445V4.24077" stroke="#F5FF2B" stroke-width="1.5" stroke-linecap="round" stroke-linejoin="round"/>
<path d="M8.41069 6.55664L7.48438 7.48296" stroke="#F5FF2B" stroke-width="1.5" stroke-linecap="round" stroke-linejoin="round"/>
<path d="M10.7271 3.7793L9.80078 4.70561" stroke="#F5FF2B" stroke-width="1.5" stroke-linecap="round" stroke-linejoin="round"/>
<path d="M6.09487 13.041V14.8936" stroke="#A0E9FF" stroke-width="2" stroke-linecap="round" stroke-linejoin="round"/>
<path d="M7.02158 13.9691H5.16895" stroke="#A0E9FF" stroke-width="2" stroke-linecap="round" stroke-linejoin="round"/>
<path d="M44.0744 16.7461V18.5987" stroke="#A0E9FF" stroke-width="2" stroke-linecap="round" stroke-linejoin="round"/>
<path d="M45.0001 17.6741H43.1475" stroke="#A0E9FF" stroke-width="2" stroke-linecap="round" stroke-linejoin="round"/>
<path d="M36.2023 1V3.31579" stroke="#F5FF2B" stroke-width="2" stroke-linecap="round" stroke-linejoin="round"/>
<path d="M37.2914 2.0257H34.9756" stroke="#F5FF2B" stroke-width="2" stroke-linecap="round" stroke-linejoin="round"/>
<path d="M29.7179 2.38867V4.2413" stroke="#F5FF2B" stroke-width="2" stroke-linecap="round" stroke-linejoin="round"/>
<path d="M30.6427 3.31476H28.79" stroke="#F5FF2B" stroke-width="2" stroke-linecap="round" stroke-linejoin="round"/>
</svg>
