<svg width="175" height="40" viewBox="0 0 175 40" fill="none" xmlns="http://www.w3.org/2000/svg">
<path d="M174.108 8.12676C174.102 7.9381 174.024 7.75885 173.891 7.62514C173.758 7.49143 173.579 7.41321 173.391 7.40625H170.977C170.786 7.40625 170.602 7.48216 170.467 7.61728C170.332 7.7524 170.256 7.93567 170.256 8.12676V31.8883C170.263 32.0769 170.341 32.2559 170.475 32.3891C170.609 32.5224 170.788 32.6 170.977 32.6062H173.391C173.581 32.6062 173.763 32.5306 173.898 32.396C174.033 32.2613 174.108 32.0787 174.108 31.8883V8.12676Z" fill="white"/>
<path d="M74.9353 7.41553H72.6025C72.5081 7.41619 72.4148 7.43552 72.328 7.4724C72.2412 7.50929 72.1625 7.563 72.0965 7.63045C72.0305 7.69789 71.9785 7.77774 71.9435 7.86538C71.9085 7.95302 71.8911 8.04673 71.8924 8.14111V24.8219L56.0314 7.76056C55.9459 7.65641 55.8388 7.57207 55.7175 7.51337C55.5962 7.45468 55.4637 7.42302 55.329 7.4206C54.9055 7.4206 54.515 7.4206 54.515 7.4206C54.3311 7.42054 54.1544 7.49241 54.0227 7.62086C53.891 7.74931 53.8147 7.92417 53.8101 8.10813V31.8823C53.8111 32.0682 53.8831 32.2465 54.0113 32.381C54.1396 32.5154 54.3143 32.5957 54.4998 32.6054H56.8707C56.9646 32.6044 57.0574 32.5849 57.1438 32.548C57.2302 32.5111 57.3084 32.4576 57.3741 32.3905C57.4398 32.3233 57.4917 32.2439 57.5267 32.1567C57.5617 32.0695 57.5792 31.9763 57.5782 31.8823L57.5554 14.7855L73.921 32.2984C73.921 32.2984 74.238 32.6003 74.4282 32.6003H74.9353C75.1191 32.6004 75.2957 32.529 75.4277 32.4011C75.5597 32.2733 75.6369 32.0991 75.6428 31.9153L75.6606 31.4866V8.14618C75.6567 7.95448 75.5792 7.77161 75.4442 7.63556C75.3092 7.4995 75.1269 7.42071 74.9353 7.41553Z" fill="white"/>
<path d="M97.9436 32.5989H98.9427C99.133 32.5989 99.3155 32.5232 99.4501 32.3886C99.5847 32.2539 99.6603 32.0713 99.6603 31.8809V29.727C99.6603 29.6328 99.6417 29.5396 99.6056 29.4526C99.5695 29.3656 99.5166 29.2866 99.45 29.2202C99.3833 29.1537 99.3042 29.1011 99.2171 29.0653C99.1301 29.0295 99.0368 29.0112 98.9427 29.0115H92.403H89.5554V21.1925H98.9554C99.1457 21.1925 99.3282 21.1169 99.4628 20.9822C99.5974 20.8476 99.673 20.665 99.673 20.4745V18.3232C99.673 18.229 99.6544 18.1358 99.6183 18.0488C99.5822 17.9618 99.5293 17.8828 99.4626 17.8164C99.396 17.7499 99.3168 17.6973 99.2298 17.6615C99.1427 17.6257 99.0495 17.6074 98.9554 17.6077H89.5554V11.0115H98.9376C99.1279 11.0115 99.3105 10.9359 99.445 10.8012C99.5796 10.6666 99.6552 10.484 99.6552 10.2936V8.13204C99.6552 7.94162 99.5796 7.759 99.445 7.62436C99.3105 7.48971 99.1279 7.41407 98.9376 7.41407H86.4516C86.3572 7.41373 86.2636 7.43206 86.1762 7.46799C86.0888 7.50392 86.0094 7.55675 85.9425 7.62346C85.8756 7.69016 85.8225 7.76942 85.7863 7.8567C85.7501 7.94397 85.7314 8.03754 85.7314 8.13204V31.8834C85.7314 32.0719 85.8057 32.2527 85.9382 32.3866C86.0707 32.5206 86.2506 32.5968 86.4389 32.5989H97.9436Z" fill="white"/>
<path d="M160.186 8.11935C160.18 7.93431 160.103 7.75857 159.973 7.62765C159.842 7.49672 159.666 7.42039 159.481 7.41407H157.115C157.022 7.41373 156.931 7.43173 156.845 7.46702C156.759 7.50232 156.681 7.55422 156.615 7.61974C156.549 7.68527 156.497 7.76313 156.462 7.84886C156.426 7.9346 156.408 8.02652 156.408 8.11935L156.42 22.2834C156.42 24.4754 156.235 25.513 155.642 26.5532C155.157 27.3367 154.478 27.9818 153.671 28.4262C152.864 28.8706 151.956 29.0993 151.035 29.0902C149.067 29.0902 147.282 28.0754 146.392 26.5532C145.798 25.513 145.611 24.4754 145.611 22.2834L145.626 8.12443C145.621 7.93849 145.545 7.76149 145.414 7.6295C145.283 7.4975 145.107 7.42046 144.921 7.41407H142.558C142.465 7.41373 142.373 7.43173 142.287 7.46702C142.201 7.50232 142.123 7.55422 142.057 7.61974C141.992 7.68527 141.94 7.76313 141.904 7.84886C141.868 7.9346 141.85 8.02652 141.85 8.11935V23.2804C141.85 25.6931 142.443 27.4766 143.744 29.1155C144.616 30.2042 145.721 31.083 146.978 31.6868C148.235 32.2907 149.611 32.6042 151.005 32.6042C152.4 32.6042 153.776 32.2907 155.033 31.6868C156.29 31.083 157.395 30.2042 158.266 29.1155C159.567 27.4817 160.161 25.6627 160.161 23.2804L160.186 8.11935Z" fill="white"/>
<path d="M127.452 30.6375C125.427 31.9136 123.083 32.5932 120.69 32.5986C118.879 32.5831 117.091 32.1918 115.439 31.4494C113.786 30.707 112.306 29.6297 111.092 28.2857C109.091 26.1039 108.074 23.2345 108.074 20.1064C108.069 18.4413 108.393 16.7916 109.027 15.252C109.661 13.7124 110.592 12.3131 111.768 11.1345C112.943 9.95597 114.34 9.02126 115.878 8.38406C117.415 7.74686 119.063 7.41972 120.728 7.42139C127.782 7.42139 133.406 13.1652 133.406 20.322C133.406 23.6201 132.351 26.1368 129.953 28.6459L127.452 30.6375ZM127.425 26.0582C129.06 24.3127 129.75 22.5673 129.75 20.0607C129.75 14.8649 125.822 10.8666 120.695 10.8666C115.567 10.8666 111.751 14.7914 111.751 20.1343C111.751 22.7855 112.623 24.8937 114.371 26.5681C115.728 27.9153 117.483 28.7881 119.376 29.0564C121.269 29.3247 123.198 28.9743 124.876 28.0573" fill="white"/>
<path d="M132.904 31.5533C133.484 32.1267 133.291 32.5986 132.475 32.596H129.96C129.574 32.5751 129.206 32.424 128.917 32.1673L120.696 24.059C120.574 23.9376 120.49 23.7824 120.455 23.6131C120.421 23.4438 120.438 23.2681 120.504 23.1083C120.569 22.9486 120.681 22.8121 120.825 22.7162C120.969 22.6203 121.137 22.5694 121.31 22.5698H123.189C123.575 22.5928 123.942 22.7447 124.231 23.0011L132.904 31.5533Z" fill="white"/>
<g opacity="0.7">
<path opacity="0.7" fill-rule="evenodd" clip-rule="evenodd" d="M1.17148 17.7365L11.8321 2.77565C12.159 2.33289 12.6179 2.01354 13.1379 1.86689C13.658 1.72024 14.2103 1.75444 14.7097 1.96421L34.7641 10.3093C35.3393 10.5326 35.8142 10.9677 36.0975 11.5308C36.3808 12.094 36.4525 12.7454 36.2986 13.3598L30.4061 35.1191C29.7652 37.0944 27.4892 38.0479 25.5938 37.1477L3.03992 25.3641C0.206574 23.8807 -0.665037 20.3129 1.17148 17.7365Z" fill="white"/>
<path opacity="0.3" fill-rule="evenodd" clip-rule="evenodd" d="M4.34465 9.74384L21.2235 1.08427C21.7186 0.826989 22.2846 0.740956 22.8336 0.839553C23.3825 0.93815 23.8836 1.21585 24.2588 1.62946L38.7675 17.9394C39.1889 18.4085 39.4183 19.0198 39.4099 19.6511C39.4014 20.2823 39.1558 20.8872 38.722 21.3449L23.0396 38.1797C22.6737 38.5295 22.2399 38.8 21.7651 38.9744C21.2904 39.1488 20.7849 39.2233 20.2802 39.1933C19.7755 39.1634 19.2823 39.0295 18.8315 38.8002C18.3806 38.5708 17.9817 38.2508 17.6595 37.8602L2.46023 17.3815C0.555578 14.8128 1.43582 11.2349 4.34465 9.74384Z" fill="white"/>
<path opacity="0.1" fill-rule="evenodd" clip-rule="evenodd" d="M29.7884 7.88233L17.6092 2.96045L8.72587 7.52479L2.01025 16.6738C2.13512 16.93 2.28151 17.1752 2.44784 17.4066L11.5285 29.6339L24.775 36.3435L33.6634 26.799L36.7493 15.7051L29.7884 7.88233Z" fill="white"/>
</g>
</svg>
