<svg width="224" height="96" viewBox="0 0 224 96" fill="none" xmlns="http://www.w3.org/2000/svg">
<path d="M148.327 85.1962C156.273 91.1184 165.885 94.3856 175.794 94.5338C183.715 94.6791 184.054 106.984 176.073 106.839C162.993 106.639 150.321 102.259 139.909 94.34C133.575 89.5925 142.065 80.5577 148.387 85.2568L148.327 85.1962Z" fill="#4376FF"/>
<path d="M156.151 51.4312C176.261 57.8864 193.978 70.2162 207.017 86.8315C211.862 93.0081 201.349 99.4996 196.493 93.3836C185.359 79.3534 170.331 68.922 153.293 63.3968C145.808 60.9746 148.606 48.9363 156.151 51.4069V51.4312Z" fill="#4376FF"/>
<path d="M147.321 -13.5461C154.991 -15.4372 162.992 -15.5472 170.711 -13.8678C178.43 -12.1883 185.662 -8.76406 191.853 -3.85733C198.09 0.987061 189.612 10.0582 183.375 5.21379C178.797 1.67328 173.481 -0.792914 167.821 -2.00248C162.161 -3.21204 156.301 -3.13404 150.676 -1.77424C142.973 0.0666275 139.449 -11.7052 147.224 -13.5582L147.321 -13.5461Z" fill="#4376FF"/>
<path d="M217.759 24.4827C232.929 23.0581 247.643 18.5232 260.983 11.1606C267.935 7.33354 274.463 17.7248 267.463 21.576C252.213 29.9732 235.396 35.1389 218.062 36.7511C210.141 37.5141 209.875 25.2093 217.771 24.4585L217.759 24.4827Z" fill="#4376FF"/>
<path d="M113.592 71.6775C117.77 78.3748 107.246 84.939 103.08 78.2174C98.9135 71.4958 109.426 64.968 113.592 71.6775Z" fill="#4376FF"/>
<path d="M183.015 23.7908C187.181 30.5003 176.668 37.1129 172.502 30.3429C168.336 23.5728 178.848 17.0814 183.015 23.7908Z" fill="#4376FF"/>
<path d="M93.1016 -41.97C103.621 -23.6095 108.388 -2.51477 106.787 18.5849C106.242 26.445 94.0705 24.1197 94.6034 16.3202C95.8387 -1.56317 91.769 -19.4134 82.9042 -34.994C79.0408 -41.8489 89.2019 -48.8248 93.1016 -41.9094V-41.97Z" fill="#4376FF"/>
</svg>
